<mxfile host="Electron" modified="2023-05-08T11:46:26.975Z" agent="Mozilla/5.0 (Windows NT 10.0; Win64; x64) AppleWebKit/537.36 (KHTML, like Gecko) draw.io/21.2.8 Chrome/112.0.5615.165 Electron/24.2.0 Safari/537.36" etag="xkmfkmJ3Ci1wJylpB7VQ" version="21.2.8" type="device">
  <diagram name="Page-1" id="lXNDa5XZVsUz_KVUvx66">
    <mxGraphModel dx="1434" dy="870" grid="1" gridSize="10" guides="1" tooltips="1" connect="1" arrows="1" fold="1" page="1" pageScale="1" pageWidth="850" pageHeight="1100" math="0" shadow="0">
      <root>
        <mxCell id="0" />
        <mxCell id="1" parent="0" />
        <mxCell id="Dev_CaOwkSv7xKSIuJSg-2" value="&lt;b&gt;Data sources&lt;/b&gt;" style="rounded=0;whiteSpace=wrap;html=1;verticalAlign=top;" parent="1" vertex="1">
          <mxGeometry x="60" y="120" width="120" height="370" as="geometry" />
        </mxCell>
        <mxCell id="Dev_CaOwkSv7xKSIuJSg-3" value="&lt;b&gt;Data Extraction&lt;/b&gt;" style="rounded=0;whiteSpace=wrap;html=1;verticalAlign=top;" parent="1" vertex="1">
          <mxGeometry x="60" y="530" width="120" height="270" as="geometry" />
        </mxCell>
        <mxCell id="Dev_CaOwkSv7xKSIuJSg-4" value="&lt;b&gt;Data Preprocessing&lt;/b&gt;" style="rounded=0;whiteSpace=wrap;html=1;verticalAlign=top;" parent="1" vertex="1">
          <mxGeometry x="365" y="120" width="120" height="560" as="geometry" />
        </mxCell>
        <mxCell id="Dev_CaOwkSv7xKSIuJSg-5" value="&lt;b&gt;Data Processing&lt;/b&gt;" style="rounded=0;whiteSpace=wrap;html=1;verticalAlign=top;" parent="1" vertex="1">
          <mxGeometry x="540" y="120" width="120" height="560" as="geometry" />
        </mxCell>
        <mxCell id="Dev_CaOwkSv7xKSIuJSg-6" value="LAZ" style="rounded=0;whiteSpace=wrap;html=1;" parent="1" vertex="1">
          <mxGeometry x="70" y="190" width="100" height="30" as="geometry" />
        </mxCell>
        <mxCell id="Dev_CaOwkSv7xKSIuJSg-7" value="RGBI" style="rounded=0;whiteSpace=wrap;html=1;" parent="1" vertex="1">
          <mxGeometry x="70" y="250" width="100" height="30" as="geometry" />
        </mxCell>
        <mxCell id="Dev_CaOwkSv7xKSIuJSg-8" value="XYZ&lt;br&gt;without crs" style="rounded=0;whiteSpace=wrap;html=1;" parent="1" vertex="1">
          <mxGeometry x="70" y="310" width="100" height="30" as="geometry" />
        </mxCell>
        <mxCell id="Dev_CaOwkSv7xKSIuJSg-9" value="manually downloading" style="rounded=0;whiteSpace=wrap;html=1;" parent="1" vertex="1">
          <mxGeometry x="70" y="565" width="100" height="30" as="geometry" />
        </mxCell>
        <mxCell id="Dev_CaOwkSv7xKSIuJSg-10" value="web scrapping?" style="rounded=0;whiteSpace=wrap;html=1;" parent="1" vertex="1">
          <mxGeometry x="70" y="610" width="100" height="30" as="geometry" />
        </mxCell>
        <mxCell id="Dev_CaOwkSv7xKSIuJSg-11" value="crs extraction" style="rounded=0;whiteSpace=wrap;html=1;" parent="1" vertex="1">
          <mxGeometry x="70" y="650" width="100" height="30" as="geometry" />
        </mxCell>
        <mxCell id="LenVicaz8Y55ZicMT9CQ-15" value="" style="edgeStyle=orthogonalEdgeStyle;rounded=0;orthogonalLoop=1;jettySize=auto;html=1;" edge="1" parent="1" source="Dev_CaOwkSv7xKSIuJSg-15" target="LenVicaz8Y55ZicMT9CQ-14">
          <mxGeometry relative="1" as="geometry" />
        </mxCell>
        <mxCell id="Dev_CaOwkSv7xKSIuJSg-15" value="Resampling, Scaling,&amp;nbsp;&lt;br&gt;Stacking" style="rounded=0;whiteSpace=wrap;html=1;" parent="1" vertex="1">
          <mxGeometry x="550" y="290" width="100" height="60" as="geometry" />
        </mxCell>
        <mxCell id="Dev_CaOwkSv7xKSIuJSg-17" value="temp folder" style="ellipse;whiteSpace=wrap;html=1;" parent="1" vertex="1">
          <mxGeometry x="375" y="550" width="100" height="80" as="geometry" />
        </mxCell>
        <mxCell id="LenVicaz8Y55ZicMT9CQ-1" value="&lt;font style=&quot;font-size: 16px;&quot;&gt;&lt;b&gt;Hardware/ Online inconsitency&lt;/b&gt;&lt;/font&gt;" style="text;strokeColor=#b85450;align=center;fillColor=#f8cecc;html=1;verticalAlign=middle;whiteSpace=wrap;rounded=0;" vertex="1" parent="1">
          <mxGeometry x="60" y="380" width="120" height="80" as="geometry" />
        </mxCell>
        <mxCell id="LenVicaz8Y55ZicMT9CQ-2" value="Pointer&lt;br&gt;JSON files list&lt;br&gt;&lt;br&gt;(created with GUI)" style="rounded=1;whiteSpace=wrap;html=1;" vertex="1" parent="1">
          <mxGeometry x="220" y="275" width="110" height="160" as="geometry" />
        </mxCell>
        <mxCell id="LenVicaz8Y55ZicMT9CQ-3" value="&lt;span style=&quot;font-size: 16px;&quot;&gt;&lt;b&gt;specific file folder structure&lt;/b&gt;&lt;/span&gt;" style="text;strokeColor=#b85450;align=center;fillColor=#f8cecc;html=1;verticalAlign=middle;whiteSpace=wrap;rounded=0;" vertex="1" parent="1">
          <mxGeometry x="60" y="700" width="120" height="80" as="geometry" />
        </mxCell>
        <mxCell id="LenVicaz8Y55ZicMT9CQ-4" value="" style="shape=image;imageAspect=0;aspect=fixed;verticalLabelPosition=bottom;verticalAlign=top;image=https://www.osgeo.org/wp-content/uploads/GDAL-1_740x412_acf_cropped.png;clipPath=inset(15.87% 31.67% 12.87% 33.33%);" vertex="1" parent="1">
          <mxGeometry x="394.12" y="160" width="61.76470588235294" height="70" as="geometry" />
        </mxCell>
        <mxCell id="LenVicaz8Y55ZicMT9CQ-5" value="every tile to tif" style="rounded=0;whiteSpace=wrap;html=1;" vertex="1" parent="1">
          <mxGeometry x="375" y="270" width="100" height="30" as="geometry" />
        </mxCell>
        <mxCell id="LenVicaz8Y55ZicMT9CQ-6" value="crs check and data cleansing" style="rounded=0;whiteSpace=wrap;html=1;" vertex="1" parent="1">
          <mxGeometry x="375" y="310" width="100" height="60" as="geometry" />
        </mxCell>
        <mxCell id="LenVicaz8Y55ZicMT9CQ-7" value="&lt;font style=&quot;font-size: 16px;&quot;&gt;&lt;b&gt;not parallelized&lt;br&gt;yet&lt;br&gt;&lt;/b&gt;&lt;/font&gt;" style="text;strokeColor=#b85450;align=center;fillColor=#f8cecc;html=1;verticalAlign=middle;whiteSpace=wrap;rounded=0;" vertex="1" parent="1">
          <mxGeometry x="365" y="380" width="120" height="50" as="geometry" />
        </mxCell>
        <mxCell id="LenVicaz8Y55ZicMT9CQ-8" value="&lt;font style=&quot;font-size: 16px;&quot;&gt;&lt;b&gt;corrupted data ok?&lt;br&gt;&lt;/b&gt;&lt;/font&gt;" style="text;strokeColor=#b85450;align=center;fillColor=#f8cecc;html=1;verticalAlign=middle;whiteSpace=wrap;rounded=0;" vertex="1" parent="1">
          <mxGeometry x="365" y="450" width="120" height="50" as="geometry" />
        </mxCell>
        <mxCell id="LenVicaz8Y55ZicMT9CQ-9" value="" style="shape=image;imageAspect=0;aspect=fixed;verticalLabelPosition=bottom;verticalAlign=top;image=https://geowombat.readthedocs.io/en/latest/_static/logo.png;" vertex="1" parent="1">
          <mxGeometry x="557.5" y="173" width="85" height="17" as="geometry" />
        </mxCell>
        <mxCell id="LenVicaz8Y55ZicMT9CQ-11" value="" style="edgeStyle=orthogonalEdgeStyle;rounded=0;orthogonalLoop=1;jettySize=auto;html=1;" edge="1" parent="1" source="LenVicaz8Y55ZicMT9CQ-10" target="Dev_CaOwkSv7xKSIuJSg-15">
          <mxGeometry relative="1" as="geometry" />
        </mxCell>
        <mxCell id="LenVicaz8Y55ZicMT9CQ-10" value="mosaicing" style="rounded=0;whiteSpace=wrap;html=1;" vertex="1" parent="1">
          <mxGeometry x="550" y="220" width="100" height="30" as="geometry" />
        </mxCell>
        <mxCell id="LenVicaz8Y55ZicMT9CQ-12" value="final folder" style="ellipse;whiteSpace=wrap;html=1;" vertex="1" parent="1">
          <mxGeometry x="550" y="550" width="100" height="80" as="geometry" />
        </mxCell>
        <mxCell id="LenVicaz8Y55ZicMT9CQ-13" value="&lt;font style=&quot;font-size: 16px;&quot;&gt;&lt;b&gt;which reference for resampling?&lt;br&gt;&lt;/b&gt;&lt;/font&gt;" style="text;strokeColor=#b85450;align=center;fillColor=#f8cecc;html=1;verticalAlign=middle;whiteSpace=wrap;rounded=0;" vertex="1" parent="1">
          <mxGeometry x="540" y="460" width="120" height="65" as="geometry" />
        </mxCell>
        <mxCell id="LenVicaz8Y55ZicMT9CQ-14" value="nDSM creation" style="rounded=0;whiteSpace=wrap;html=1;" vertex="1" parent="1">
          <mxGeometry x="550" y="370" width="100" height="40" as="geometry" />
        </mxCell>
        <mxCell id="LenVicaz8Y55ZicMT9CQ-16" value="laz to xyz" style="rounded=0;whiteSpace=wrap;html=1;" vertex="1" parent="1">
          <mxGeometry x="375" y="230" width="100" height="30" as="geometry" />
        </mxCell>
      </root>
    </mxGraphModel>
  </diagram>
</mxfile>
